G04 #@! TF.FileFunction,Profile,NP*
%FSLAX46Y46*%
G04 Gerber Fmt 4.6, Leading zero omitted, Abs format (unit mm)*
G04 Created by KiCad (PCBNEW 4.0.7-e2-6376~58~ubuntu16.04.1) date Tue Apr  3 19:40:46 2018*
%MOMM*%
%LPD*%
G01*
G04 APERTURE LIST*
%ADD10C,0.100000*%
%ADD11C,0.150000*%
G04 APERTURE END LIST*
D10*
D11*
X147300000Y-121300000D02*
X147800000Y-121300000D01*
X143800000Y-121300000D02*
X146100000Y-121300000D01*
X140300000Y-121300000D02*
X142600000Y-121300000D01*
X136800000Y-121300000D02*
X139100000Y-121300000D01*
X133300000Y-121300000D02*
X135600000Y-121300000D01*
X131600000Y-121300000D02*
X132100000Y-121300000D01*
X142600000Y-127300000D02*
X143800000Y-127300000D01*
X143800000Y-127300000D02*
X143800000Y-121300000D01*
X147300000Y-127300000D02*
X147300000Y-121300000D01*
X146100000Y-121300000D02*
X146100000Y-127300000D01*
X146100000Y-127300000D02*
X147300000Y-127300000D01*
X142600000Y-121300000D02*
X142600000Y-127300000D01*
X133300000Y-127300000D02*
X133300000Y-121300000D01*
X132100000Y-127300000D02*
X133300000Y-127300000D01*
X132100000Y-121300000D02*
X132100000Y-127300000D01*
X136800000Y-127300000D02*
X136800000Y-121300000D01*
X135600000Y-127300000D02*
X136800000Y-127300000D01*
X135600000Y-121300000D02*
X135600000Y-127300000D01*
X140300000Y-127300000D02*
X140300000Y-121300000D01*
X139100000Y-127300000D02*
X140300000Y-127300000D01*
X139100000Y-121300000D02*
X139100000Y-127300000D01*
X147800000Y-118800000D02*
X147800000Y-121300000D01*
X147800000Y-116300000D02*
X147800000Y-118800000D01*
X146100000Y-116300000D02*
X147800000Y-116300000D01*
X146100000Y-113300000D02*
X146100000Y-116300000D01*
X147800000Y-113300000D02*
X146100000Y-113300000D01*
X147800000Y-107300000D02*
X147800000Y-113300000D01*
X131600000Y-107300000D02*
X147800000Y-107300000D01*
X131600000Y-118800000D02*
X131600000Y-121300000D01*
X131600000Y-116300000D02*
X131600000Y-118800000D01*
X133300000Y-116300000D02*
X131600000Y-116300000D01*
X133300000Y-113300000D02*
X133300000Y-116300000D01*
X131600000Y-113300000D02*
X133300000Y-113300000D01*
X131600000Y-107300000D02*
X131600000Y-113300000D01*
M02*
