G04 #@! TF.FileFunction,Soldermask,Bot*
%FSLAX46Y46*%
G04 Gerber Fmt 4.6, Leading zero omitted, Abs format (unit mm)*
G04 Created by KiCad (PCBNEW 4.0.7-e2-6376~58~ubuntu16.04.1) date Tue Apr  3 19:40:46 2018*
%MOMM*%
%LPD*%
G01*
G04 APERTURE LIST*
%ADD10C,0.100000*%
%ADD11C,1.981200*%
%ADD12C,0.254000*%
G04 APERTURE END LIST*
D10*
D11*
X139700000Y-114300000D03*
X135700000Y-117550000D03*
X143700000Y-118800000D03*
D12*
G36*
X133173000Y-127173000D02*
X132227000Y-127173000D01*
X132227000Y-122427000D01*
X133173000Y-122427000D01*
X133173000Y-127173000D01*
X133173000Y-127173000D01*
G37*
X133173000Y-127173000D02*
X132227000Y-127173000D01*
X132227000Y-122427000D01*
X133173000Y-122427000D01*
X133173000Y-127173000D01*
G36*
X136673000Y-127173000D02*
X135727000Y-127173000D01*
X135727000Y-122427000D01*
X136673000Y-122427000D01*
X136673000Y-127173000D01*
X136673000Y-127173000D01*
G37*
X136673000Y-127173000D02*
X135727000Y-127173000D01*
X135727000Y-122427000D01*
X136673000Y-122427000D01*
X136673000Y-127173000D01*
G36*
X140173000Y-127173000D02*
X139227000Y-127173000D01*
X139227000Y-122427000D01*
X140173000Y-122427000D01*
X140173000Y-127173000D01*
X140173000Y-127173000D01*
G37*
X140173000Y-127173000D02*
X139227000Y-127173000D01*
X139227000Y-122427000D01*
X140173000Y-122427000D01*
X140173000Y-127173000D01*
G36*
X143673000Y-127173000D02*
X142727000Y-127173000D01*
X142727000Y-122427000D01*
X143673000Y-122427000D01*
X143673000Y-127173000D01*
X143673000Y-127173000D01*
G37*
X143673000Y-127173000D02*
X142727000Y-127173000D01*
X142727000Y-122427000D01*
X143673000Y-122427000D01*
X143673000Y-127173000D01*
G36*
X147173000Y-127173000D02*
X146227000Y-127173000D01*
X146227000Y-122427000D01*
X147173000Y-122427000D01*
X147173000Y-127173000D01*
X147173000Y-127173000D01*
G37*
X147173000Y-127173000D02*
X146227000Y-127173000D01*
X146227000Y-122427000D01*
X147173000Y-122427000D01*
X147173000Y-127173000D01*
M02*
