G04 #@! TF.FileFunction,Legend,Top*
%FSLAX46Y46*%
G04 Gerber Fmt 4.6, Leading zero omitted, Abs format (unit mm)*
G04 Created by KiCad (PCBNEW 4.0.7-e2-6376~58~ubuntu16.04.1) date Tue Apr  3 19:40:46 2018*
%MOMM*%
%LPD*%
G01*
G04 APERTURE LIST*
%ADD10C,0.100000*%
%ADD11C,0.203200*%
%ADD12C,0.254000*%
G04 APERTURE END LIST*
D10*
D11*
X146424833Y-120902167D02*
X146001500Y-120902167D01*
X146001500Y-120013167D01*
X146721167Y-120563500D02*
X147398500Y-120563500D01*
X147059833Y-120902167D02*
X147059833Y-120224833D01*
X143124833Y-120902167D02*
X142701500Y-120902167D01*
X142701500Y-120013167D01*
X143421167Y-120563500D02*
X144098500Y-120563500D01*
X139932833Y-120055500D02*
X139848167Y-120013167D01*
X139721167Y-120013167D01*
X139594167Y-120055500D01*
X139509500Y-120140167D01*
X139467167Y-120224833D01*
X139424833Y-120394167D01*
X139424833Y-120521167D01*
X139467167Y-120690500D01*
X139509500Y-120775167D01*
X139594167Y-120859833D01*
X139721167Y-120902167D01*
X139805833Y-120902167D01*
X139932833Y-120859833D01*
X139975167Y-120817500D01*
X139975167Y-120521167D01*
X139805833Y-120521167D01*
X136424834Y-120902167D02*
X136128500Y-120478833D01*
X135916834Y-120902167D02*
X135916834Y-120013167D01*
X136255500Y-120013167D01*
X136340167Y-120055500D01*
X136382500Y-120097833D01*
X136424834Y-120182500D01*
X136424834Y-120309500D01*
X136382500Y-120394167D01*
X136340167Y-120436500D01*
X136255500Y-120478833D01*
X135916834Y-120478833D01*
X136805834Y-120563500D02*
X137483167Y-120563500D01*
X137144500Y-120902167D02*
X137144500Y-120224833D01*
X132924834Y-120902167D02*
X132628500Y-120478833D01*
X132416834Y-120902167D02*
X132416834Y-120013167D01*
X132755500Y-120013167D01*
X132840167Y-120055500D01*
X132882500Y-120097833D01*
X132924834Y-120182500D01*
X132924834Y-120309500D01*
X132882500Y-120394167D01*
X132840167Y-120436500D01*
X132755500Y-120478833D01*
X132416834Y-120478833D01*
X133305834Y-120563500D02*
X133983167Y-120563500D01*
D12*
X147800000Y-118800000D02*
X145000000Y-118800000D01*
X131600000Y-118800000D02*
X142400000Y-118800000D01*
X133300000Y-113300000D02*
X133300000Y-116300000D01*
X146100000Y-113300000D02*
X146100000Y-116300000D01*
X147800000Y-116300000D02*
X146100000Y-116300000D01*
X147800000Y-113300000D02*
X146100000Y-113300000D01*
X131600000Y-116300000D02*
X133300000Y-116300000D01*
X131600000Y-113300000D02*
X133300000Y-113300000D01*
X147800000Y-107300000D02*
X147800000Y-118800000D01*
X131600000Y-107300000D02*
X131600000Y-118800000D01*
X131600000Y-107300000D02*
X147800000Y-107300000D01*
D11*
X132773834Y-108717500D02*
X132731500Y-108759833D01*
X132604500Y-108802167D01*
X132519834Y-108802167D01*
X132392834Y-108759833D01*
X132308167Y-108675167D01*
X132265834Y-108590500D01*
X132223500Y-108421167D01*
X132223500Y-108294167D01*
X132265834Y-108124833D01*
X132308167Y-108040167D01*
X132392834Y-107955500D01*
X132519834Y-107913167D01*
X132604500Y-107913167D01*
X132731500Y-107955500D01*
X132773834Y-107997833D01*
X133324167Y-107913167D02*
X133493500Y-107913167D01*
X133578167Y-107955500D01*
X133662834Y-108040167D01*
X133705167Y-108209500D01*
X133705167Y-108505833D01*
X133662834Y-108675167D01*
X133578167Y-108759833D01*
X133493500Y-108802167D01*
X133324167Y-108802167D01*
X133239500Y-108759833D01*
X133154834Y-108675167D01*
X133112500Y-108505833D01*
X133112500Y-108209500D01*
X133154834Y-108040167D01*
X133239500Y-107955500D01*
X133324167Y-107913167D01*
X134086167Y-108802167D02*
X134086167Y-107913167D01*
X134594167Y-108802167D01*
X134594167Y-107913167D01*
X135483166Y-108802167D02*
X134975166Y-108802167D01*
X135229166Y-108802167D02*
X135229166Y-107913167D01*
X135144500Y-108040167D01*
X135059833Y-108124833D01*
X134975166Y-108167167D01*
X136033500Y-107913167D02*
X136118167Y-107913167D01*
X136202833Y-107955500D01*
X136245167Y-107997833D01*
X136287500Y-108082500D01*
X136329833Y-108251833D01*
X136329833Y-108463500D01*
X136287500Y-108632833D01*
X136245167Y-108717500D01*
X136202833Y-108759833D01*
X136118167Y-108802167D01*
X136033500Y-108802167D01*
X135948833Y-108759833D01*
X135906500Y-108717500D01*
X135864167Y-108632833D01*
X135821833Y-108463500D01*
X135821833Y-108251833D01*
X135864167Y-108082500D01*
X135906500Y-107997833D01*
X135948833Y-107955500D01*
X136033500Y-107913167D01*
X137176500Y-108802167D02*
X136668500Y-108802167D01*
X136922500Y-108802167D02*
X136922500Y-107913167D01*
X136837834Y-108040167D01*
X136753167Y-108124833D01*
X136668500Y-108167167D01*
M02*
